<svg width="52" height="40" viewBox="0 0 52 40" fill="none" xmlns="http://www.w3.org/2000/svg">
<g clip-path="url(#clip0_9066_1818)">
<g clip-path="url(#clip1_9066_1818)">
<path fill-rule="evenodd" clip-rule="evenodd" d="M15.6678 39.3423C15.6678 39.2181 15.6385 39.1185 15.5796 39.0427C15.5205 38.9668 15.4309 38.9072 15.3111 38.8635V38.8584C15.4016 38.811 15.4695 38.7519 15.5149 38.6821C15.5605 38.6123 15.5833 38.5313 15.5833 38.4397C15.5833 38.3569 15.5679 38.2833 15.5373 38.2196C15.5066 38.1558 15.461 38.1014 15.4002 38.0563C15.3399 38.0112 15.2735 37.9772 15.201 37.9548C15.1285 37.9325 15.0496 37.9209 14.9641 37.9209H14.1587V39.8835H14.9761C15.0918 39.884 15.2015 39.8667 15.3064 39.8318C15.411 39.7964 15.4969 39.7392 15.5638 39.6597C15.6306 39.5801 15.6659 39.4745 15.6678 39.3423ZM15.1899 38.5025C15.1899 38.5742 15.1643 38.6276 15.1132 38.6639C15.0621 38.7002 14.9849 38.7179 14.8824 38.7184H14.5502V38.2945H14.9098C14.9911 38.2936 15.0574 38.3098 15.1095 38.3419C15.1615 38.3746 15.1885 38.4281 15.1899 38.5025ZM15.2767 39.2897C15.2767 39.4354 15.175 39.508 14.9715 39.508H14.5502V39.0688H14.9595C15.0649 39.0688 15.1443 39.087 15.1972 39.1237C15.2502 39.1604 15.2767 39.2158 15.2767 39.2897Z" fill="white"/>
<path fill-rule="evenodd" clip-rule="evenodd" d="M17.1494 38.9036C17.1494 39.1865 17.2465 39.4257 17.4415 39.6206C17.5392 39.7183 17.6474 39.7914 17.7658 39.8403C17.8842 39.8891 18.0134 39.9133 18.1533 39.9133C18.4333 39.9133 18.6711 39.8152 18.8671 39.6178C18.9661 39.5187 19.0404 39.4085 19.0901 39.2876C19.1398 39.1665 19.1645 39.0348 19.1645 38.8934C19.1645 38.7528 19.1403 38.623 19.0914 38.5044C19.0427 38.3858 18.9698 38.2778 18.8723 38.1815C18.6795 37.9884 18.4431 37.8911 18.1634 37.8906C18.0236 37.8906 17.8941 37.9153 17.7747 37.9642C17.6553 38.0135 17.5461 38.0875 17.4472 38.1861C17.2489 38.3839 17.15 38.6225 17.15 38.9031L17.1494 38.9036ZM17.7338 38.4648C17.8504 38.3443 17.9916 38.2843 18.1579 38.2843C18.3242 38.2843 18.4653 38.3443 18.582 38.4648C18.64 38.5249 18.6837 38.5914 18.7125 38.6641C18.7413 38.7366 18.7556 38.8157 18.7556 38.9008C18.7556 38.986 18.7413 39.0651 18.7125 39.1381C18.6837 39.2112 18.64 39.2782 18.582 39.3396C18.4653 39.4601 18.3242 39.5201 18.1579 39.5201C17.9916 39.5201 17.8504 39.4601 17.7338 39.3396C17.6757 39.2782 17.632 39.2112 17.6032 39.1381C17.5744 39.0651 17.5601 38.986 17.5601 38.9008C17.5601 38.8157 17.5744 38.7366 17.6032 38.6641C17.632 38.5914 17.6757 38.5249 17.7338 38.4648Z" fill="white"/>
<path fill-rule="evenodd" clip-rule="evenodd" d="M21.9044 37.9209V39.1069C21.9039 39.2349 21.8703 39.3354 21.8039 39.4089C21.7381 39.482 21.6432 39.5191 21.5197 39.5205C21.4073 39.5205 21.3172 39.4843 21.2484 39.4131C21.1797 39.3419 21.1449 39.2363 21.1426 39.0967L21.1449 37.9209H20.7412V39.1069C20.7412 39.3563 20.8059 39.5522 20.9349 39.6941C21.0641 39.836 21.2582 39.9086 21.517 39.9109C21.7751 39.9091 21.9698 39.8364 22.1017 39.6941C22.2336 39.5513 22.2996 39.3507 22.3001 39.0916V37.9209H21.9044Z" fill="white"/>
<path fill-rule="evenodd" clip-rule="evenodd" d="M24.4061 39.884H24.8052V38.314H25.3871V37.9209H23.8237V38.314H24.4061V39.884Z" fill="white"/>
<path fill-rule="evenodd" clip-rule="evenodd" d="M27.3321 37.9209H26.9312V39.884H27.3321V37.9209Z" fill="white"/>
<path fill-rule="evenodd" clip-rule="evenodd" d="M30.9521 39.6453L30.7641 39.4801C30.8249 39.3936 30.8704 39.3014 30.9011 39.2037C30.9318 39.106 30.9471 39.0022 30.9471 38.8933C30.9471 38.7528 30.9229 38.623 30.8742 38.5044C30.8254 38.3857 30.7524 38.2777 30.6549 38.1814C30.5583 38.0852 30.451 38.0125 30.333 37.9636C30.215 37.9153 30.0859 37.8906 29.9461 37.8906C29.8059 37.8906 29.6757 37.9153 29.556 37.9641C29.4361 38.0135 29.3265 38.0875 29.2271 38.1861C29.031 38.3838 28.9326 38.6225 28.9326 38.9031C28.9326 39.1861 29.0292 39.4252 29.2224 39.6201C29.418 39.8132 29.6562 39.9105 29.9363 39.911C30.038 39.911 30.1352 39.8965 30.2285 39.8681C30.3219 39.8397 30.411 39.797 30.4965 39.7407L30.707 39.9338L30.9521 39.6453ZM29.941 39.5224C29.8578 39.5224 29.7812 39.5075 29.7106 39.4768C29.64 39.4461 29.5755 39.4006 29.5173 39.3391C29.4588 39.2776 29.4152 39.2106 29.3854 39.1376C29.3562 39.0646 29.3413 38.9855 29.3413 38.9003C29.3413 38.8152 29.3562 38.7362 29.3854 38.6635C29.4147 38.5909 29.4588 38.5244 29.5173 38.4644C29.5755 38.4029 29.64 38.3569 29.7106 38.3266C29.7812 38.2964 29.8583 38.281 29.941 38.281C30.0241 38.281 30.1003 38.2959 30.1705 38.3266C30.2406 38.3569 30.3041 38.4029 30.3627 38.4644C30.4798 38.5871 30.5383 38.7329 30.5388 38.9008C30.5388 38.9562 30.5328 39.0092 30.5197 39.0604C30.5072 39.1116 30.4877 39.1604 30.4617 39.2069L30.1295 38.9036L29.8843 39.1972L30.1918 39.4657C30.1523 39.4847 30.1115 39.4988 30.0697 39.5085C30.0279 39.5183 29.9851 39.5233 29.9414 39.5233L29.941 39.5224Z" fill="white"/>
<path fill-rule="evenodd" clip-rule="evenodd" d="M33.6899 37.9209V39.1069C33.6895 39.2349 33.6561 39.3354 33.5897 39.4089C33.5232 39.4824 33.4289 39.5191 33.3054 39.5205C33.193 39.5205 33.1028 39.4843 33.0341 39.4131C32.9654 39.3419 32.9305 39.2363 32.9282 39.0967L32.9305 37.9209H32.5269V39.1069C32.5269 39.3563 32.5914 39.5522 32.7206 39.6941C32.8497 39.836 33.0438 39.9086 33.3026 39.9109C33.5609 39.9091 33.7555 39.8364 33.8873 39.6941C34.0193 39.5513 34.0852 39.3507 34.0856 39.0916V37.9209H33.6899Z" fill="white"/>
<path fill-rule="evenodd" clip-rule="evenodd" d="M35.7832 37.9209V39.884H37.0592V39.5057H36.1794V39.0813H36.9626V38.7007H36.1794V38.3019H37.0541V37.9209H35.7832Z" fill="white"/>
<path fill-rule="evenodd" clip-rule="evenodd" d="M14.603 21.4276C15.1574 20.7598 15.4263 19.8117 15.3299 18.8644C15.2329 17.9172 14.7818 17.0804 14.1104 16.6028C14.1025 16.5975 14.0948 16.5924 14.087 16.587L13.3218 16.1306C12.9411 15.8948 12.5672 15.6432 12.1993 15.3777C11.894 15.1622 11.7596 14.7066 11.881 14.3C12.0026 13.8934 12.3451 13.6541 12.6912 13.734L13.1579 13.8347C13.2923 13.8514 13.413 13.946 13.4814 14.0888C13.5058 14.1625 13.5101 14.2448 13.4928 14.321C13.4545 14.4454 13.4078 14.5655 13.3539 14.6803C13.2498 14.9738 13.2967 15.3156 13.4728 15.5512C13.5699 15.681 13.6801 15.7949 13.8016 15.8904C13.8943 15.9631 13.9967 16.0157 14.1034 16.0454C14.3914 16.1366 14.695 15.9964 14.8642 15.6959C15.1002 15.2692 15.1782 14.739 15.0793 14.2369C14.9804 13.7348 14.7133 13.308 14.3438 13.0626C14.2569 13.0058 14.1668 12.9593 14.0731 12.9251C13.8961 12.8594 13.7157 12.8051 13.5343 12.763L12.7216 12.572C11.8975 12.5212 11.0752 12.728 10.3345 13.1749C9.61877 13.6068 9.13378 14.4629 9.05232 15.4391C8.97079 16.4153 9.30391 17.3749 9.93278 17.9777C10.0056 18.0477 10.082 18.1126 10.1618 18.1722C10.3422 18.3072 10.5253 18.4377 10.7117 18.5612C11.0361 18.7637 11.3606 18.9679 11.6841 19.1721C12.1092 19.4507 12.4293 19.9231 12.5742 20.4882C12.6314 20.7536 12.5837 21.0368 12.445 21.2514C12.1507 21.6616 11.7136 21.8709 11.2721 21.8157C11.0543 21.8105 10.8375 21.771 10.6276 21.6992C10.5147 21.6475 10.4177 21.5547 10.3491 21.4337C10.2893 21.3145 10.2607 21.1753 10.2676 21.0351L10.4315 20.1C10.4584 19.5392 10.1418 19.0407 9.6934 18.9372C9.24495 18.8339 8.80341 19.1572 8.66368 19.6926C8.50322 20.2946 8.56042 20.9535 8.82069 21.5003C9.08173 22.0471 9.52073 22.43 10.0265 22.5509L10.9459 22.7787C12.2731 23.0969 13.642 22.5912 14.6075 21.4276H14.603Z" fill="white"/>
<path fill-rule="evenodd" clip-rule="evenodd" d="M30.8197 20.2283L29.7675 19.0604L28.7231 20.5062C28.8445 20.9338 29.0623 21.3106 29.3503 21.5919C29.5281 21.7645 29.751 21.8486 29.9765 21.8293C30.0615 21.8126 30.1413 21.768 30.2082 21.6997C30.5568 21.3229 30.7755 20.797 30.8197 20.2283ZM28.6277 19.8989C28.7976 19.7561 28.9537 19.5905 29.0935 19.4046C29.1221 19.3626 29.1585 19.3285 29.1993 19.3057C29.2158 19.296 29.234 19.2898 29.2522 19.2855C29.2652 19.2829 29.2783 19.2838 29.2903 19.289C29.2974 19.2934 29.3017 19.3022 29.3025 19.3118C29.3025 19.325 29.2991 19.3372 29.2929 19.3485C29.2834 19.3679 29.273 19.3854 29.26 19.4021C29.1516 19.5414 29.0397 19.6754 28.9226 19.8043C28.8991 19.8331 28.8766 19.863 28.855 19.8945C28.8488 19.9033 28.8436 19.9129 28.8384 19.9225C28.8359 19.9278 28.8333 19.934 28.8315 19.9401L28.8349 19.948L28.8541 19.9417C28.8654 19.9358 28.8758 19.9278 28.8862 19.9199C28.9173 19.8954 28.9477 19.8691 28.9772 19.841C29.0501 19.7718 29.1178 19.6957 29.1793 19.6124L29.8204 18.708C30.307 19.275 30.8319 19.7893 31.3896 20.2467C31.5526 20.3809 31.7278 20.4904 31.9118 20.5744C32.0453 20.6359 32.1868 20.67 32.329 20.6762C33.062 20.6946 33.7846 20.4562 34.4126 19.9891C34.4872 19.9313 34.547 19.8481 34.5844 19.7499C34.6268 19.615 34.6842 19.487 34.7526 19.3696C34.783 19.3197 34.8125 19.2697 34.8403 19.2181C34.8472 19.2048 34.8532 19.1917 34.8593 19.1786L34.8636 19.1602L34.8576 19.1584C34.8489 19.1629 34.8412 19.1682 34.8333 19.1751C34.8194 19.1865 34.8064 19.1987 34.7934 19.2111C34.7561 19.2469 34.7189 19.2838 34.6806 19.3188C34.6511 19.3468 34.6199 19.3741 34.5896 19.4012C34.3085 19.6491 33.9407 19.6938 33.6258 19.5169C33.017 19.169 32.4705 18.673 32.0193 18.0604C31.8702 17.8545 31.7193 17.6503 31.5657 17.4488C31.5032 17.3673 31.4399 17.2885 31.3731 17.2114C31.2031 17.0151 30.9966 16.8739 30.7711 16.8012C30.5569 16.7032 30.3174 16.7356 30.1258 16.8889C30.0355 16.9766 29.9185 17.0133 29.8048 16.9879L29.3997 16.8144C29.0527 16.6944 28.6797 16.7873 28.3969 17.0633C28.3423 17.1168 28.2902 17.1746 28.2408 17.2367C28.0838 17.4339 27.9302 17.6356 27.7801 17.8406C27.3343 18.4416 26.8208 18.9604 26.2552 19.382C25.9047 19.6412 25.4728 19.6693 25.1033 19.4554C25.0425 19.4134 24.9896 19.3574 24.9463 19.2898C24.9202 19.2505 24.8934 19.2119 24.8665 19.1741C24.856 19.1594 24.8448 19.1462 24.8326 19.133C24.824 19.1234 24.8135 19.1163 24.8031 19.112C24.7953 19.1093 24.7874 19.1103 24.7805 19.1146C24.7719 19.1216 24.765 19.1321 24.7622 19.1453C24.7588 19.182 24.765 19.2189 24.7788 19.2514C24.7979 19.3004 24.8214 19.3468 24.85 19.3889C24.9123 19.487 24.993 19.5668 25.0842 19.6212C25.4632 19.8139 25.8849 19.8446 26.2795 19.7079C26.3428 19.6851 26.4053 19.6597 26.4669 19.6308C26.5259 19.6035 26.5857 19.5773 26.6455 19.5527C26.6673 19.544 26.689 19.5361 26.7114 19.5301C26.7245 19.5256 26.7383 19.5248 26.7523 19.5265L26.7618 19.5397C26.7618 19.5493 26.7583 19.558 26.754 19.5659C26.7462 19.5808 26.7374 19.5939 26.7271 19.6071C26.6898 19.6553 26.6508 19.7 26.6099 19.7429C26.5883 19.7657 26.5666 19.7911 26.5467 19.8165C26.5363 19.8288 26.5284 19.8438 26.5232 19.8604L26.5275 19.877C26.5275 19.877 26.5363 19.8805 26.5406 19.8805C26.5475 19.8805 26.5544 19.8805 26.5606 19.8788C26.5796 19.8752 26.5996 19.8691 26.6178 19.863C26.6699 19.8438 26.721 19.8227 26.7722 19.8007C26.8432 19.7665 26.9162 19.7403 26.9908 19.7211C27.0159 19.7149 27.0419 19.7281 27.0559 19.7552L27.0723 19.8385C27.0819 19.8762 27.1027 19.9077 27.1295 19.9287C27.1999 19.9708 27.2779 19.9909 27.3569 19.9874C27.4132 19.9891 27.4687 19.9997 27.5226 20.019C27.5581 20.033 27.5902 20.0557 27.6171 20.0873C27.6465 20.1268 27.6553 20.1846 27.6396 20.2345C27.5979 20.3195 27.5269 20.3764 27.4471 20.3879C26.806 20.5184 26.1485 20.4151 25.5543 20.0908C25.4407 20.0269 25.3313 19.9515 25.2273 19.8656C25.2029 19.8472 25.1778 19.8306 25.1517 19.8156C25.1448 19.8121 25.138 19.8086 25.1302 19.806C25.1257 19.8043 25.1223 19.8043 25.1179 19.8052L25.1145 19.8121C25.1145 19.8174 25.1171 19.8227 25.1189 19.8271C25.1222 19.835 25.1266 19.8419 25.1319 19.8489C25.1457 19.8691 25.1606 19.8884 25.1761 19.9067C25.216 19.9541 25.2586 19.9987 25.3027 20.0399C25.6515 20.3598 26.0653 20.5561 26.4981 20.6078L27.1747 20.7463C27.2684 20.7524 27.362 20.7384 27.4515 20.7059C27.8808 20.535 28.2799 20.2607 28.6234 19.9006L28.6277 19.8989ZM30.3521 13.9718C30.2142 13.7791 30.0155 13.6686 29.8065 13.6686C29.5974 13.6686 29.3989 13.7782 29.26 13.9701C28.8524 14.5255 28.5764 15.2091 28.4637 15.9444C28.4029 16.1923 28.3943 16.4551 28.4386 16.7093C28.4472 16.7417 28.4698 16.7653 28.4975 16.7706C28.5262 16.7706 28.5548 16.7628 28.5817 16.7478C28.6156 16.7295 28.6485 16.7101 28.6814 16.6891C28.7387 16.6462 28.8029 16.6198 28.8697 16.6121C28.9242 16.6121 28.9789 16.6059 29.0328 16.5901C29.0909 16.5744 29.149 16.5639 29.2088 16.5586C29.2809 16.5551 29.3529 16.5797 29.4127 16.6287C29.6312 16.7881 29.9011 16.7969 30.1258 16.6514C30.3027 16.5744 30.4927 16.5551 30.6775 16.5954C30.7225 16.6059 30.7668 16.6181 30.811 16.633C30.8734 16.655 30.9368 16.6759 30.9992 16.6944C31.0461 16.7093 31.0955 16.712 31.1441 16.7014C31.1728 16.6908 31.1953 16.6637 31.2057 16.6296C31.2143 16.5953 31.2178 16.5586 31.2152 16.5227C31.1666 15.578 30.864 14.6798 30.3538 13.9718H30.3521ZM33.0499 20.8865C33.6908 20.705 34.2842 20.3256 34.7726 19.7824C35.0059 19.5195 35.0901 19.112 34.9877 18.744C34.9427 18.4951 34.79 18.2962 34.5913 18.226C34.5756 18.2226 34.5609 18.2217 34.5453 18.2209C34.5358 18.2209 34.5263 18.2226 34.5176 18.226C34.5089 18.2305 34.5037 18.241 34.5037 18.2525C34.5054 18.2655 34.5089 18.2787 34.5141 18.2901C34.5219 18.3076 34.5306 18.3242 34.5393 18.34L34.6148 18.468C34.6668 18.5495 34.7014 18.6449 34.7163 18.7475C34.7318 19.0288 34.5887 19.2864 34.3702 19.3696C34.2651 19.4074 34.1584 19.4353 34.05 19.4528C33.9963 19.4616 33.9416 19.4643 33.8869 19.4625C33.8478 19.4625 33.8098 19.4494 33.776 19.4257C33.7508 19.4003 33.7437 19.3564 33.7586 19.3214L34.345 17.4987L33.4792 15.4011C32.7011 13.5433 31.0808 12.4567 29.3901 12.6601C27.6994 12.8634 26.2812 14.3145 25.8094 16.3228C25.7252 16.6979 25.5638 17.0396 25.341 17.3156C25.2975 17.3691 25.268 17.4366 25.255 17.5111C25.2429 17.6022 25.2351 17.6942 25.2308 17.787C25.2247 17.872 25.2464 17.9571 25.2889 18.0237C25.3331 18.0842 25.3825 18.1385 25.4363 18.1849C25.5206 18.2498 25.5873 18.3436 25.629 18.4548L25.8466 19.2925C25.5812 19.5177 25.2194 19.4528 25.0164 19.1436C24.9384 19.0472 24.8968 18.9149 24.9011 18.779C24.9054 18.6432 24.9566 18.5162 25.0408 18.4285C25.0685 18.3978 25.0945 18.3654 25.1179 18.3295C25.1311 18.3103 25.1397 18.2883 25.144 18.2647C25.1448 18.2506 25.1397 18.2376 25.1293 18.2313C25.1085 18.2226 25.0859 18.2217 25.0642 18.2279C25.0313 18.2366 24.9992 18.2488 24.9688 18.2663C24.8942 18.3076 24.8274 18.369 24.7736 18.4443C24.6375 18.6449 24.5723 18.9043 24.5932 19.1645C24.614 19.4249 24.719 19.664 24.8838 19.828C25.2586 20.2012 25.6741 20.5079 26.1182 20.7392C26.1694 20.7629 26.2223 20.7813 26.2761 20.7945C26.3576 20.8111 26.4383 20.8409 26.5137 20.8822C26.6941 21.0424 26.8529 21.2352 26.9864 21.4543C27.5477 22.1281 28.2573 22.5838 29.0267 22.766C30.55 23.1446 32.114 22.4146 33.0499 20.8882V20.8865Z" fill="white"/>
<path fill-rule="evenodd" clip-rule="evenodd" d="M19.5372 22.3409C19.7342 22.2209 19.8809 22.0036 19.9389 21.7424C19.9501 21.6277 19.931 21.5102 19.8852 21.4095C19.8062 21.2639 19.7091 21.1361 19.5963 21.0301C19.4062 20.8328 19.2978 20.5411 19.3013 20.2353L19.3153 18.3058C19.9137 18.289 20.5123 18.2926 21.1108 18.3188C21.2062 18.9375 21.2436 19.5684 21.221 20.1976C21.1863 20.4754 21.0909 20.7374 20.9468 20.9547C20.8177 21.1475 20.7144 21.3648 20.6416 21.5979C20.6121 21.7451 20.6381 21.9011 20.7126 22.0211C20.9504 22.404 21.338 22.5951 21.7249 22.5206C21.8299 22.5004 21.9348 22.4768 22.039 22.4504C22.1421 22.4242 22.2454 22.3953 22.3477 22.3629C22.6011 22.2831 22.8656 22.2718 23.1233 22.3296C23.282 22.3733 23.4399 22.4242 23.5951 22.4829C23.8276 22.5503 24.0732 22.4864 24.264 22.3085C24.4574 22.1578 24.558 21.8791 24.519 21.6022C24.4436 21.3578 24.3229 21.1378 24.1659 20.96C24.0238 20.7821 23.9422 20.5437 23.9386 20.294C23.9482 19.94 23.9474 19.5851 23.9378 19.2311C23.904 18.6124 24.1044 18.0086 24.4816 17.5969C24.0783 17.1157 23.8753 16.434 23.9325 15.7462C23.9421 15.6349 23.9439 15.5227 23.9386 15.4105C23.9317 15.2651 23.9369 15.1187 23.9551 14.9741C23.9795 14.7761 24.0506 14.5912 24.159 14.4423C24.2093 14.3774 24.2622 14.3143 24.3177 14.2556C24.4105 14.161 24.4859 14.0435 24.5389 13.9111C24.5806 13.785 24.5797 13.644 24.5363 13.5187C24.4644 13.3512 24.3576 13.2093 24.2284 13.1068C23.7088 12.6739 23.0122 12.7624 22.5759 13.3171C22.2645 12.9026 21.7943 12.7291 21.3485 12.864C20.9027 12.999 20.5521 13.4214 20.4317 13.9664C20.913 14.1162 21.247 14.6561 21.2349 15.2668L21.201 17.0745L19.3595 17.0623C19.2883 16.1614 19.2875 15.2545 19.3568 14.3528C19.5547 14.3941 19.7524 14.2827 19.8574 14.0733C19.9623 13.8631 19.9536 13.5957 19.8348 13.3968C19.6232 13.0288 19.2805 12.808 18.9144 12.8019C18.5484 12.7957 18.2014 13.0051 17.9811 13.3661C17.6055 12.8177 16.9723 12.6599 16.4518 12.9842C16.2297 13.0998 16.0588 13.3286 15.9834 13.6116C15.9652 13.7308 15.9808 13.8533 16.0268 13.9603C16.1127 14.1224 16.2176 14.2671 16.3399 14.3888C16.4961 14.565 16.588 14.8102 16.5957 15.0697V16.1334C16.6288 16.7276 16.4587 17.3111 16.1273 17.7448C16.863 18.9375 16.7501 20.6208 15.8662 21.6486C16.0415 22.1289 16.4015 22.4679 16.8239 22.5503C17.2463 22.6327 17.674 22.447 17.9612 22.0571C18.3627 22.6056 19.0247 22.7256 19.5372 22.3409Z" fill="white"/>
<path fill-rule="evenodd" clip-rule="evenodd" d="M39.8485 14.1539C39.6638 13.8166 39.3289 13.6554 39.0071 13.75C38.6852 13.8447 38.4458 14.175 38.4051 14.5789C38.3245 15.4964 38.3488 16.4235 38.478 17.3331C39.0852 17.319 39.6386 16.9011 39.9231 16.2413C40.2076 15.5805 40.179 14.7823 39.8485 14.1557V14.1539ZM38.5248 22.4102C38.7573 22.2901 38.9342 22.0491 39.0071 21.7521C39.0218 21.6417 39.0071 21.5286 38.9663 21.4288C38.897 21.2869 38.8059 21.1624 38.7 21.0615C38.5041 20.8583 38.3912 20.5577 38.3938 20.2414V18.3032C39.316 18.2513 40.2302 18.0778 41.121 17.7835C41.959 17.5031 42.5646 16.6066 42.6364 15.5412C42.7076 14.4755 42.2297 13.4695 41.4403 13.0235C40.0255 12.2305 38.3817 12.3654 37.0658 13.3838C36.704 12.8159 36.0656 12.6433 35.5435 12.9727C35.3361 13.0937 35.1695 13.2988 35.0707 13.5528C35.0438 13.6589 35.0516 13.7728 35.0932 13.8709L35.5972 14.7455C35.6527 14.8751 35.6822 15.0188 35.6839 15.1652C35.6787 15.5525 35.6796 15.9389 35.6865 16.3263C35.6952 16.4726 35.6936 16.6197 35.6822 16.7653C35.6596 16.9423 35.5746 17.0982 35.4497 17.1911C35.3135 17.2831 35.2303 17.4628 35.2364 17.6538C35.278 17.8755 35.3552 18.084 35.4628 18.269C35.6631 18.6729 35.7481 19.1478 35.703 19.6175C35.6918 19.7367 35.6891 19.8567 35.6952 19.9759C35.7022 20.1134 35.6979 20.2519 35.6813 20.3895C35.6267 20.8505 35.3256 21.208 34.9492 21.2579C34.9735 21.8511 35.3058 22.3567 35.7716 22.5109C36.2374 22.6652 36.7309 22.4321 36.9938 21.9343C37.3434 22.5284 37.9879 22.7273 38.5239 22.4085L38.5248 22.4102Z" fill="white"/>
<path fill-rule="evenodd" clip-rule="evenodd" d="M33.5819 20.3103C33.7189 20.2489 33.8498 20.1709 33.9731 20.0762C34.0469 20.0271 34.1266 19.9903 34.209 19.9684C34.3305 19.9325 34.4398 19.8536 34.5256 19.7415C34.5334 19.7318 34.5395 19.7222 34.5464 19.7117C34.5499 19.7055 34.5533 19.6985 34.5543 19.6906L34.5482 19.675C34.5387 19.6713 34.5291 19.6697 34.5196 19.6713C34.5039 19.6731 34.4884 19.6758 34.4727 19.6801C34.431 19.6916 34.3895 19.7038 34.3478 19.717C34.3027 19.7309 34.2576 19.7433 34.2125 19.7537C33.9245 19.809 33.6296 19.7923 33.3468 19.7064C33.2826 19.6854 33.2193 19.6626 33.1567 19.6363C33.0943 19.6101 33.0328 19.5855 32.9694 19.5619C32.9468 19.554 32.9242 19.547 32.9017 19.5417C32.8939 19.5399 32.8862 19.5391 32.8775 19.5391C32.8722 19.5391 32.867 19.5391 32.8618 19.5417L32.8549 19.5566C32.8567 19.5671 32.861 19.5768 32.8662 19.5856C32.8756 19.6013 32.887 19.6161 32.8982 19.6302C32.9417 19.681 32.9868 19.7292 33.0336 19.7757C33.0475 19.7887 33.0605 19.8037 33.0718 19.8194C33.0778 19.8274 33.0822 19.837 33.0849 19.8475L33.0796 19.8615C33.07 19.8668 33.0605 19.8685 33.0501 19.8677C33.0345 19.8677 33.0188 19.8651 33.0032 19.8615C32.9651 19.8528 32.9269 19.8432 32.8896 19.8308C32.8584 19.8204 32.8272 19.8098 32.7959 19.8011C32.7916 19.8003 32.7873 19.7975 32.7829 19.795C32.7751 19.7906 32.7672 19.7862 32.7595 19.7809L32.6918 19.7388C32.6588 19.7179 32.625 19.6995 32.5913 19.6819C32.5773 19.675 32.5634 19.6697 32.5496 19.6652C32.5401 19.6618 32.5305 19.6617 32.5209 19.6635L32.5113 19.6801C32.5113 19.6854 32.5122 19.6898 32.514 19.6951C32.5305 19.7467 32.5219 19.8046 32.4906 19.8449C32.4567 19.8773 32.4178 19.9018 32.3769 19.9159L32.2191 19.9763C32.1401 20.0053 32.0664 20.0525 32.0022 20.1156C31.9788 20.1402 31.9597 20.17 31.9467 20.2042C31.9388 20.2313 31.9433 20.2621 31.9579 20.2849C31.9779 20.3111 32.0031 20.3312 32.0308 20.3435C32.0681 20.3619 32.1072 20.376 32.1461 20.3856C32.2399 20.4084 32.3354 20.4242 32.4298 20.4338C32.4481 20.4355 32.4664 20.4381 32.4845 20.4399C32.8532 20.4767 33.2254 20.433 33.5819 20.3103Z" fill="white"/>
<path fill-rule="evenodd" clip-rule="evenodd" d="M28.3 17.2708C28.0641 17.5355 27.9097 17.8939 27.8646 18.2838C27.862 18.3171 27.8758 18.3495 27.9 18.3636C27.9226 18.3723 27.946 18.3741 27.9686 18.3706C27.9972 18.3672 28.0259 18.3619 28.0544 18.3548C28.0822 18.3487 28.1109 18.3434 28.1394 18.3399C28.1629 18.3365 28.1855 18.3391 28.208 18.3469C28.2454 18.3732 28.26 18.431 28.2409 18.4793C28.2584 18.6168 28.3521 18.7202 28.4656 18.7238C28.3495 18.8412 28.261 18.9946 28.2098 19.168C28.2497 19.1435 28.2983 19.1497 28.333 19.1838C28.3676 19.218 28.3833 19.275 28.3719 19.3283C28.4457 19.2671 28.542 19.2601 28.621 19.3117C28.5472 19.438 28.4527 19.5439 28.3442 19.6228C28.333 19.6333 28.3226 19.6465 28.3139 19.6605C28.3078 19.6701 28.3043 19.6806 28.3027 19.692C28.3017 19.7052 28.3061 19.7175 28.3156 19.7254C28.3261 19.7323 28.3373 19.735 28.3495 19.7342C28.3659 19.7323 28.3816 19.7262 28.3962 19.7175C28.6808 19.5782 28.9454 19.3844 29.1813 19.1427C29.21 19.1075 29.2377 19.0725 29.2663 19.0383C29.3132 18.9822 29.3582 18.9226 29.3999 18.8604C29.4173 18.8341 29.432 18.807 29.4451 18.778C29.4545 18.7562 29.4614 18.7325 29.4633 18.7071C29.4633 18.701 29.4633 18.6948 29.4614 18.6888L29.4511 18.6756C29.439 18.6738 29.426 18.6756 29.4147 18.6809C29.3973 18.6869 29.3808 18.6948 29.3644 18.7027C29.347 18.7106 29.3296 18.7185 29.3123 18.7246C29.2993 18.7299 29.2863 18.7308 29.2732 18.7291L29.2612 18.7133C29.2603 18.6984 29.2612 18.6834 29.2672 18.6694C29.3001 18.5573 29.2958 18.4337 29.2541 18.3259L29.1302 18.0639C29.1042 17.9912 29.1016 17.9088 29.124 17.8335L29.1769 17.6397C29.2065 17.5382 29.2663 17.4549 29.3444 17.4059C29.4156 17.3768 29.4633 17.2954 29.4642 17.2043C29.465 17.1123 29.419 17.0299 29.3487 16.9983C28.9844 16.8572 28.5863 16.9616 28.2992 17.2718L28.3 17.2708Z" fill="white"/>
<path fill-rule="evenodd" clip-rule="evenodd" d="M30.8402 16.9437C30.6962 16.8903 30.5427 16.8912 30.3987 16.9463C30.3345 16.9691 30.2728 17.0015 30.2148 17.0436C30.1931 17.0603 30.1722 17.0796 30.1541 17.1014C30.1402 17.1181 30.1298 17.1374 30.1229 17.1592C30.1219 17.1637 30.121 17.168 30.1201 17.1724C30.1201 17.1759 30.1201 17.1803 30.1201 17.1838C30.1227 17.2031 30.1289 17.2215 30.1384 17.2381C30.1506 17.2609 30.1644 17.2828 30.1801 17.303C30.2199 17.3547 30.2608 17.4055 30.3023 17.4554C30.3458 17.5062 30.3865 17.5606 30.4247 17.6176C30.4559 17.6631 30.4784 17.7166 30.4906 17.7744C30.4941 17.8024 30.4906 17.8305 30.4802 17.8551C30.5132 17.9638 30.4932 18.0864 30.4298 18.1722C30.3552 18.2503 30.3266 18.3773 30.3588 18.4912C30.3683 18.5324 30.3709 18.5753 30.3657 18.6173C30.3597 18.6446 30.344 18.6656 30.3223 18.6762C30.2962 18.685 30.2685 18.6867 30.2417 18.6822C30.226 18.6805 30.2096 18.6788 30.1939 18.6771C30.1827 18.6752 30.1705 18.6771 30.1593 18.6805C30.1524 18.684 30.1479 18.6928 30.1479 18.7025C30.1498 18.7164 30.1532 18.7296 30.1593 18.7418C30.4369 19.2203 30.8376 19.5682 31.2974 19.7294L31.0007 19.2895L31.2557 19.3333C31.2401 19.3115 31.2297 19.2851 31.2236 19.2571C31.2236 19.2439 31.2271 19.2309 31.2357 19.2229C31.2574 19.2089 31.2817 19.201 31.306 19.201C31.32 19.1993 31.3329 19.1975 31.3468 19.1949C31.3564 19.1931 31.3658 19.1888 31.3746 19.1826L31.3772 19.1792C31.4058 19.1257 31.4023 19.0557 31.3694 19.0057C31.3494 18.9767 31.326 18.9522 31.2999 18.9338C31.2635 18.9101 31.2314 18.8759 31.2071 18.8356C31.1984 18.8146 31.1984 18.79 31.2071 18.7682C31.2228 18.7383 31.2419 18.7121 31.2635 18.6901C31.2826 18.67 31.2991 18.6464 31.3129 18.6201C31.3312 18.5745 31.3225 18.5192 31.293 18.4834C31.267 18.4447 31.2453 18.401 31.2288 18.3555C31.2228 18.3388 31.2185 18.3212 31.2159 18.3028C31.2141 18.2915 31.2141 18.28 31.2175 18.2686L31.2305 18.2599C31.2436 18.2625 31.2557 18.2695 31.2653 18.28C31.286 18.2993 31.3051 18.3212 31.3225 18.3457C31.3372 18.366 31.3537 18.3843 31.3711 18.4018C31.3815 18.4114 31.3927 18.4193 31.4058 18.4246C31.417 18.4281 31.4292 18.4246 31.4378 18.4142C31.4483 18.4001 31.4561 18.3835 31.463 18.366C31.4691 18.3519 31.476 18.3388 31.4847 18.3265C31.4959 18.3115 31.5133 18.3046 31.5299 18.3072C31.5576 18.3152 31.5828 18.331 31.6045 18.3528C31.6348 18.3835 31.6712 18.4036 31.7094 18.4123C31.7284 18.4123 31.7458 18.401 31.7562 18.3817C31.7666 18.3572 31.7719 18.33 31.7719 18.3019C31.7719 18.2652 31.7701 18.2283 31.765 18.1925C31.7527 18.1127 31.7329 18.0338 31.706 17.9593C31.5342 17.4975 31.2245 17.1339 30.8419 16.9437H30.8402Z" fill="white"/>
<path fill-rule="evenodd" clip-rule="evenodd" d="M22.2687 3.43029C22.2964 3.269 22.3198 3.10685 22.339 2.94396C22.3502 2.8484 22.358 2.7511 22.3615 2.6548C22.3823 2.10879 22.1403 1.59891 21.743 1.35352C21.4056 1.17041 21.0109 1.32282 20.8191 1.71013C20.695 2.03 20.6327 2.38044 20.6352 2.73532L20.6309 4.5974C20.9744 4.73502 21.3493 4.68594 21.6615 4.46337C21.9738 4.2408 22.1949 3.86483 22.2687 3.43029ZM25.1607 9.81044C25.0904 9.46511 24.8293 9.23109 24.5405 9.25666C24.2525 9.28115 24.02 9.55716 23.9888 9.91117C23.9888 10.0742 24.02 10.2353 24.0798 10.3808C24.1103 10.4623 24.1389 10.5447 24.1667 10.6279C24.1892 10.6911 24.2005 10.7594 24.2013 10.8286C24.1979 10.8785 24.1736 10.9241 24.138 10.9486C24.0243 10.9995 23.9004 11.0065 23.7841 10.9671C23.6869 10.9293 23.6088 10.8373 23.575 10.7182C23.5369 10.4107 23.5777 10.096 23.6914 9.81827L24.445 7.58814C24.6489 6.97825 24.5127 6.27638 24.1067 5.84616C23.9342 5.68845 23.7469 5.55613 23.5482 5.45354C23.5221 5.43862 23.4987 5.41679 23.4805 5.38868C23.4709 5.36944 23.4683 5.34577 23.4752 5.32567C23.5004 5.27746 23.5352 5.23886 23.5767 5.21432C23.6349 5.17314 23.6948 5.13454 23.7555 5.09952C23.8187 5.06191 23.8804 5.02073 23.9393 4.9751C24.5717 4.45635 24.9248 3.55643 24.8624 2.62496C24.7998 1.69348 24.3314 0.876814 23.6384 0.492949C22.2375 -0.2781 20.617 -0.137897 19.3177 0.866334C19.0287 0.424638 18.5656 0.216121 18.1136 0.32562C17.6617 0.435118 17.2965 0.843516 17.1655 1.38682C17.6851 1.77758 17.9861 2.4892 17.9506 3.23657L17.9654 4.04979C17.9479 4.25486 17.8656 4.44229 17.7354 4.57287C17.5863 4.71393 17.5047 4.93836 17.5194 5.16882C17.5724 5.44306 17.6557 5.70682 17.7649 5.95479C18.0954 6.88799 17.9748 7.97113 17.4518 8.75885C17.2722 9.00591 17.2826 9.38188 17.4744 9.61413C17.7181 9.91463 18.0521 10.0768 18.3964 10.0601C18.7407 10.0443 19.0643 9.85159 19.289 9.52914C19.5978 9.96814 20.0828 10.1529 20.538 10.0048C20.9935 9.85674 21.3422 9.40115 21.4342 8.83155C20.9624 8.72023 20.624 8.20768 20.6327 7.61625L20.6561 5.70238C21.4498 5.93728 21.9582 6.89156 21.8158 7.88084C21.7812 8.12008 21.7282 8.35486 21.657 8.58188C21.6112 8.72998 21.5721 8.88069 21.5409 9.03493C21.4333 9.57205 21.4577 10.1372 21.6112 10.6577C21.6658 10.8418 21.7413 11.0153 21.8366 11.1721C21.9244 11.3158 22.0293 11.4412 22.1489 11.5428C22.4057 11.7618 22.698 11.909 23.0051 11.9747C23.2385 12.0256 23.4744 12.0537 23.7112 12.058C24.1658 12.0598 24.596 11.8048 24.8779 11.3657C25.1598 10.9276 25.264 10.3537 25.1582 9.80952L25.1607 9.81044Z" fill="white"/>
<path fill-rule="evenodd" clip-rule="evenodd" d="M47.9262 3.55244C48.0972 2.94342 48.0598 2.27484 47.823 1.69997C47.666 1.32413 47.325 1.12252 46.9885 1.20489C46.6519 1.28726 46.4004 1.63425 46.3717 2.05486C46.3136 2.92332 46.3007 3.79425 46.3319 4.66444C47.0154 4.8441 47.7006 4.36653 47.9262 3.55244ZM50.84 9.72922C50.8036 9.55318 50.7107 9.40162 50.584 9.30949C50.4574 9.21752 50.3047 9.19034 50.1616 9.23586C50.0184 9.28147 49.8962 9.3954 49.8207 9.55141C49.7452 9.70742 49.7244 9.89483 49.7617 10.0719L49.9057 10.8062C49.9134 10.8465 49.9065 10.8886 49.8874 10.9236C49.8025 11.0305 49.6767 11.0708 49.5605 11.027C49.3523 10.8815 49.2473 10.5845 49.3037 10.2979C49.3444 9.93084 49.4338 9.57506 49.5699 9.24562C49.5786 9.22542 49.5865 9.20439 49.5951 9.18335L49.884 8.44116C50.0436 8.03187 50.152 7.59549 50.2076 7.1469C50.2787 6.57117 50.0592 5.99901 49.6533 5.70023C49.5951 5.65991 49.5336 5.62563 49.4711 5.59764C49.3704 5.55991 49.2751 5.50122 49.191 5.42328C49.1641 5.39702 49.1544 5.35226 49.1658 5.31292C49.1927 5.26557 49.2291 5.22697 49.2716 5.20244C49.3297 5.16384 49.3895 5.12796 49.4503 5.09467C49.5154 5.05878 49.5786 5.01846 49.6394 4.9737C50.2831 4.46382 50.6456 3.55947 50.584 2.6201C50.5217 1.68074 50.0444 0.860487 49.3427 0.485507C47.9453 -0.255825 46.344 -0.133995 45.0316 0.812403C44.6152 0.275144 43.9568 0.15245 43.4294 0.513498C43.2246 0.628298 43.0721 0.84828 43.0104 1.11463C42.9913 1.24965 43.0147 1.38887 43.0755 1.50367C43.1865 1.67458 43.308 1.835 43.439 1.98309C43.582 2.1995 43.6566 2.47288 43.6489 2.75155C43.648 2.79274 43.6472 2.83306 43.6463 2.87425C43.6446 3.09152 43.6437 3.30793 43.6437 3.52532C43.6419 4.14125 43.4225 4.72659 43.0424 5.12796C43.8483 6.1365 43.8891 7.73844 43.1353 8.80738C42.9749 9.05544 42.9957 9.41291 43.1831 9.62934C43.4294 9.91848 43.7599 10.0736 44.1008 10.0596C44.4408 10.0456 44.7626 9.86243 44.9924 9.55318C45.3594 10.0438 45.9407 10.1902 46.4342 9.91763C46.6642 9.81245 46.8489 9.59517 46.9442 9.3174C46.9807 9.18159 46.9694 9.03349 46.9139 8.90826C46.7951 8.70934 46.6605 8.52439 46.5131 8.35702C46.3734 8.13882 46.2998 7.86627 46.3058 7.58859C46.3119 7.32483 46.3188 7.06194 46.3293 6.79904C46.3302 6.77278 46.3336 6.74639 46.3379 6.72099L46.4837 5.96486C47.1342 6.07078 47.6036 6.78412 47.5532 7.58945C47.5498 7.65074 47.541 7.71118 47.5281 7.77084C47.4569 8.0959 47.3805 8.4192 47.2999 8.74166C47.1846 9.16324 47.1429 9.61015 47.1759 10.0535C47.2513 10.9893 47.8073 11.7605 48.5534 11.9637C48.7867 12.0164 49.0226 12.0505 49.2594 12.0646C49.7478 12.1083 50.2232 11.8604 50.5363 11.3977C50.8503 10.9351 50.964 10.3154 50.8425 9.73191L50.84 9.72922Z" fill="white"/>
<path fill-rule="evenodd" clip-rule="evenodd" d="M5.64157 8.44484C5.99462 8.28883 6.23925 7.89021 6.26441 7.43012C6.29043 6.96919 6.09265 6.53367 5.76041 6.31985C5.1775 5.94487 4.52605 5.76262 3.8694 5.78975L3.80434 7.40731C3.78959 7.71225 3.87547 8.0129 4.04288 8.23893C4.2103 8.46503 4.44451 8.59824 4.69346 8.60783C5.01529 8.62979 5.33711 8.57459 5.64245 8.44653L5.64157 8.44484ZM5.33451 3.71471C5.37615 3.59904 5.40998 3.47993 5.43687 3.35723C5.46635 3.22147 5.48891 3.08386 5.50279 2.94452C5.56352 2.46165 5.46983 1.96927 5.24169 1.56963C5.07254 1.28219 4.78368 1.14026 4.50089 1.20512C4.21724 1.26998 3.9891 1.52931 3.91536 1.87284C3.78438 2.50727 3.74709 3.16537 3.80346 3.81643C3.7974 4.04505 3.83122 4.27207 3.90323 4.48329C4.01513 4.64975 4.19469 4.72165 4.36471 4.66727C4.79583 4.56566 5.15842 4.20892 5.33451 3.71471ZM7.30967 9.86434C8.03485 9.49989 8.50932 8.63494 8.5137 7.67107C8.51799 6.70717 8.05043 5.83537 7.32876 5.46199L6.56193 5.0695C6.53677 5.0563 6.51249 5.04053 6.48907 5.02215C6.47259 5.00896 6.4587 4.99058 6.44917 4.96876C6.44483 4.95384 6.44656 4.93805 6.4535 4.92486C6.47432 4.89773 6.50034 4.87936 6.52984 4.87147C6.6799 4.81623 6.82391 4.73558 6.95575 4.63138C7.57076 4.11263 7.89696 3.21259 7.79976 2.30221C7.70264 1.39268 7.19864 0.626809 6.49601 0.321003C5.44641 -0.128581 4.30051 -0.104043 3.2648 0.391905C2.95078 0.59783 2.59079 0.67231 2.23948 0.603997C1.91072 0.476989 1.56461 0.429637 1.22023 0.46552C0.936583 0.453313 0.668541 0.629398 0.518474 0.926445C0.4725 1.06234 0.469897 1.21388 0.511534 1.3515C0.606085 1.57752 0.717985 1.79134 0.845496 1.9911C1.13783 2.59223 1.21243 3.31605 1.05282 3.9882C0.976483 4.29833 0.875861 4.59982 0.751816 4.88638C0.693696 5.02387 0.688493 5.18603 0.735333 5.32968L1.00077 5.85806C1.09706 6.09469 1.13956 6.35758 1.12395 6.62134C1.11527 6.76684 1.11093 6.91309 1.11007 7.05946C1.11007 7.17081 1.11267 7.28203 1.12048 7.39251C1.16645 8.08208 0.846364 8.72883 0.327637 8.99517C0.467294 9.52354 0.828153 9.91785 1.27055 10.0265C1.71294 10.1351 2.16921 9.94242 2.46328 9.52093C3.55191 10.0037 4.70387 10.2333 5.86017 10.1974C6.35548 10.1957 6.84732 10.0826 7.30967 9.86434Z" fill="white"/>
<path fill-rule="evenodd" clip-rule="evenodd" d="M31.0397 8.4573C31.3798 8.29876 31.6166 7.91665 31.6513 7.47148C31.6867 7.02634 31.5134 6.59525 31.2053 6.35862C30.6467 5.9337 29.9935 5.73653 29.3395 5.79436C29.2067 6.40955 29.1687 7.05001 29.2268 7.68187C29.2701 8.06659 29.4453 8.41001 29.709 8.62383C29.8305 8.70621 29.9692 8.74122 30.1072 8.72456C30.4255 8.68333 30.7387 8.59396 31.0397 8.4573ZM30.8714 3.23829C30.8948 3.08231 30.9078 2.92459 30.9078 2.76602C30.9078 2.59857 30.8974 2.43123 30.8748 2.26563C30.8471 1.96328 30.7404 1.68029 30.5713 1.45857C30.3578 1.18606 30.0344 1.09494 29.7464 1.22638C29.4584 1.3587 29.2614 1.68904 29.2459 2.06674C29.2042 2.96307 29.1955 3.86125 29.2207 4.75857C30.0083 4.85586 30.7247 4.19517 30.8714 3.23829ZM32.8448 9.76379C33.5318 9.36079 33.9595 8.49408 33.9335 7.55743C33.9075 6.62066 33.4329 5.79263 32.7251 5.44737L31.9115 5.04514C31.8906 5.03638 31.8706 5.02146 31.8551 5.00222C31.849 4.99076 31.8482 4.97682 31.8534 4.96449C31.862 4.94871 31.8734 4.9365 31.8854 4.92688C31.9045 4.91196 31.9236 4.89877 31.9435 4.88743C31.9973 4.85758 32.0511 4.82959 32.1057 4.80333C32.1717 4.77176 32.2367 4.73403 32.2983 4.69111C32.9438 4.20922 33.3064 3.31363 33.2309 2.38832C33.1554 1.46388 32.6558 0.674332 31.9452 0.359772C30.6077 -0.229151 29.127 -0.0652742 27.8961 0.810099C27.5873 0.422782 27.144 0.245834 26.7085 0.335233C26.2739 0.424509 25.9018 0.769776 25.7119 1.26054C26.1958 1.73109 26.4917 2.43555 26.5238 3.19353C26.5558 3.95151 26.3217 4.69025 25.8792 5.22036C26.2904 5.6147 26.5229 6.22902 26.5038 6.87035L26.4735 7.87726C26.4665 8.00171 26.4362 8.12256 26.3833 8.22859C26.2731 8.4206 26.1429 8.59411 25.9955 8.7439C25.9044 8.85085 25.8576 9.00233 25.868 9.15665C25.9062 9.39672 26.0164 9.61054 26.1759 9.75603C26.6201 10.166 27.2325 10.1564 27.6679 9.73239C27.9525 9.63503 28.2536 9.64125 28.5353 9.74897C28.6551 9.7945 28.7757 9.83841 28.8971 9.87857C29.01 9.91634 29.1227 9.95135 29.2362 9.98375C29.598 10.0864 29.9675 10.1477 30.3389 10.1652L31.0467 10.2187C31.666 10.2476 32.2818 10.0915 32.8414 9.76379H32.8448Z" fill="white"/>
<path fill-rule="evenodd" clip-rule="evenodd" d="M11.4968 5.39354C11.4951 5.44176 11.5072 5.48997 11.5298 5.52943C11.548 5.561 11.5757 5.5811 11.6069 5.58541C11.7492 5.60033 11.8923 5.59861 12.0346 5.5811C12.0814 5.57493 12.1248 5.54694 12.1552 5.50218C12.1708 5.47246 12.1768 5.43645 12.1725 5.40229C12.1595 5.31906 12.1387 5.23756 12.1118 5.15963C12.0554 4.93792 11.9947 4.71707 11.9305 4.49807C11.9123 4.41571 11.8845 4.33679 11.8481 4.26404C11.8412 4.25355 11.8299 4.25183 11.8204 4.25885C11.803 4.27365 11.7891 4.29474 11.7821 4.31928C11.7006 4.59882 11.6217 4.88008 11.5445 5.16222C11.5219 5.2367 11.5063 5.31561 11.4968 5.39354ZM11.0318 9.65928C11.1602 9.51548 11.2366 9.31486 11.2426 9.10196C11.2374 9.01083 11.2079 8.925 11.1576 8.85843C10.992 8.68047 10.8488 8.47371 10.7325 8.24407C10.6866 8.13098 10.6683 8.004 10.6788 7.8787C10.7126 7.56587 10.8115 7.26882 10.9659 7.0164C11.1186 6.79556 11.3476 6.67644 11.5827 6.69396L12.6912 6.79211L12.9159 7.86634C12.9324 7.95578 12.9281 8.0486 12.9029 8.13459C12.8049 8.36853 12.673 8.57797 12.5143 8.75494C12.3417 9.05459 12.3833 9.46726 12.6115 9.70565C13.1354 10.2271 13.8987 10.1561 14.3533 9.54365C14.6491 9.94312 15.0915 10.1254 15.5226 10.0247C15.9536 9.92392 16.3111 9.55325 16.4664 9.04753C15.9373 8.43509 15.5416 7.6692 15.3162 6.81924C15.1513 6.34524 15.1807 5.80194 15.3943 5.35852C15.4237 5.30772 15.435 5.24372 15.4263 5.18244C15.3794 5.00278 15.2554 4.87046 15.1045 4.83717C15.0048 4.82139 14.9119 4.76873 14.8373 4.6855C14.7142 4.52434 14.6221 4.33062 14.5684 4.11951L14.2084 2.84709C14.1364 2.67015 14.0982 2.47556 14.0974 2.27753C14.1086 2.16717 14.1486 2.06371 14.2118 1.98307L14.5312 1.66333C14.5476 1.64311 14.5641 1.62215 14.5788 1.6002C14.7236 1.36628 14.7176 1.03938 14.5632 0.815092C14.342 0.475127 14.0062 0.278818 13.6532 0.282271C13.3001 0.285847 12.967 0.489058 12.7502 0.833457C12.3573 0.288435 11.7128 0.143794 11.1888 0.482892C11.0752 0.559221 10.972 0.657375 10.8835 0.773042C10.8011 0.877234 10.743 1.00695 10.7143 1.14888C10.7004 1.26639 10.7351 1.38465 10.8072 1.46444C11.0006 1.66062 11.155 1.90773 11.2608 2.18727C11.3042 2.33894 11.305 2.50454 11.2643 2.65695C11.1333 3.10123 11.0015 3.54465 10.8687 3.98893C10.6883 4.42619 10.4333 4.81091 10.1228 5.11671C10.0621 5.19292 10.0274 5.29539 10.0274 5.40229C10.0395 5.55915 10.0681 5.71427 10.1141 5.86149C10.1722 6.04288 10.186 6.24092 10.154 6.43193C9.98221 7.08916 9.78098 7.73406 9.55111 8.36415C9.3082 8.44738 9.12777 8.69797 9.08962 9.00553C9.0523 9.31233 9.16424 9.61812 9.37591 9.78626C9.61875 9.95363 9.89115 10.0422 10.1696 10.0448C10.4862 10.057 10.7959 9.91862 11.0318 9.65928Z" fill="white"/>
<path fill-rule="evenodd" clip-rule="evenodd" d="M39.1716 9.94021C39.4023 9.83603 39.6391 9.75618 39.8811 9.70098C40.0649 9.70098 40.2445 9.76754 40.3981 9.89107C40.4779 9.94459 40.5611 9.99012 40.6478 10.0253C41.1188 10.19 41.6107 9.86228 41.7556 9.28654C41.9273 8.57146 41.9846 7.82136 41.9247 7.07917C41.904 6.76991 41.7548 6.49654 41.5309 6.35449C41.3072 6.21256 41.0391 6.22304 40.8231 6.38261C40.7564 6.42983 40.6973 6.4921 40.6478 6.56486C40.5359 6.73218 40.4353 6.90925 40.3469 7.09582C40.1361 7.52876 39.8993 7.94144 39.64 8.33138C39.4639 8.60132 39.1819 8.73 38.9052 8.66443C38.6285 8.59871 38.4047 8.35157 38.3231 8.02029C38.147 7.32986 38.161 6.58767 38.364 5.90848L39.5237 5.81649C39.7926 5.80157 40.0051 5.53165 40.0094 5.20044C40.0138 4.86923 39.8073 4.59142 39.5393 4.56602L38.3057 4.44074C38.1878 3.78436 38.1739 3.10616 38.2633 2.44375C38.2893 2.09848 38.4195 1.77776 38.6276 1.54471C38.8653 1.33705 39.1299 1.18107 39.41 1.08291C39.5574 1.01805 39.7136 0.991788 39.8697 1.00572C39.96 1.02767 40.0389 1.09783 40.084 1.19685C40.1578 1.4045 40.1812 1.63411 40.1499 1.85841C40.1369 1.99503 40.1361 2.13264 40.1491 2.26939C40.1942 2.60677 40.3651 2.89851 40.6106 3.05881C40.856 3.21838 41.1485 3.22714 41.3999 3.08249C41.8068 2.86694 42.0722 2.37543 42.0748 1.83029C42.0782 1.28526 41.8189 0.788456 41.4147 0.56588C39.9557 -0.257822 38.2642 -0.171875 36.8649 0.796348C36.5561 0.398552 36.1025 0.225917 35.6653 0.341581C35.2281 0.457245 34.8715 0.844555 34.7241 1.36418C35.2663 1.76284 35.582 2.50072 35.5421 3.27707L35.4988 4.20324C35.4909 4.30411 35.464 4.40042 35.4199 4.4855C35.3313 4.63445 35.2324 4.77281 35.1231 4.89994C35.0599 4.98403 35.0312 5.0997 35.0459 5.21364C35.104 5.41784 35.19 5.60884 35.3001 5.77703C35.4605 6.08728 35.5412 6.44919 35.5317 6.81628C35.5283 6.93811 35.5274 7.05994 35.5274 7.18177C35.5274 7.31753 35.53 7.45342 35.5343 7.59004C35.5517 8.18589 35.2134 8.70735 34.7379 8.81768C34.803 9.38643 35.1362 9.85353 35.5864 10.005C36.0365 10.1567 36.5163 9.96386 36.8077 9.51526C37.5164 10.0436 38.3683 10.1979 39.1706 9.94374L39.1716 9.94021Z" fill="white"/>
<path fill-rule="evenodd" clip-rule="evenodd" d="M24.5551 33.5467C25.125 32.8773 25.4027 31.9151 25.3037 30.953C25.2048 29.9909 24.7407 29.1443 24.0537 28.6712C24.0399 28.6616 24.0252 28.6518 24.0103 28.6431L23.2601 28.1998C22.894 27.9719 22.5332 27.7291 22.1809 27.4707C21.9312 27.2927 21.7915 26.9493 21.8254 26.5962C21.8592 26.243 22.0604 25.9496 22.3362 25.8478C22.6338 25.7821 22.9399 25.8198 23.2202 25.9573C23.3303 25.9846 23.4171 26.0898 23.4405 26.2255C23.437 26.3868 23.4118 26.5454 23.3659 26.696C23.3356 26.8134 23.3182 26.9353 23.3138 27.058C23.3156 27.5934 23.6357 28.0465 24.0668 28.1226C24.497 28.1989 24.9082 27.8755 25.0323 27.3621C25.2586 26.4289 24.87 25.4369 24.1361 25.0741C22.9087 24.4703 21.5312 24.5291 20.3403 25.2371C19.5561 25.6997 19.0469 26.6619 19.0192 27.7318C18.9914 28.8018 19.4493 29.8016 20.2083 30.3255C20.7036 30.6682 21.2008 31.0056 21.6995 31.3393C22.0977 31.5901 22.4022 32.0186 22.5521 32.5374C22.6182 32.8194 22.5809 33.1218 22.4508 33.3671C22.3207 33.6124 22.1098 33.7764 21.8738 33.8158C21.5312 33.8806 21.1825 33.8911 20.8382 33.8474C20.6794 33.8289 20.526 33.7631 20.3924 33.6554C20.3081 33.5738 20.2526 33.4547 20.2388 33.3233C20.238 33.042 20.2795 32.7642 20.3627 32.5022C20.381 32.4208 20.395 32.3384 20.4027 32.2542C20.453 31.6768 20.1382 31.1466 19.6749 31.0327C19.2126 30.9179 18.7554 31.2561 18.6201 31.8127C18.4735 32.4059 18.5351 33.0473 18.7893 33.5817C19.0435 34.1163 19.4685 34.4966 19.9603 34.6299L20.8087 34.8514C22.1557 35.2108 23.5602 34.721 24.5551 33.5467Z" fill="white"/>
<path fill-rule="evenodd" clip-rule="evenodd" d="M15.5448 34.0059C15.9351 34.4984 16.5311 34.6447 17.0446 34.3739C17.2763 34.2767 17.4644 34.0629 17.5608 33.786C17.5989 33.645 17.5877 33.4906 17.5295 33.3601C17.415 33.1647 17.2858 32.9824 17.1444 32.8142C17.009 32.5978 16.938 32.3296 16.9449 32.0562C16.9474 31.9301 16.9483 31.8038 16.9466 31.6777C16.9449 31.5462 16.9449 31.4148 16.9483 31.2834C16.964 30.6726 17.1634 30.0908 17.5096 29.6517C16.7965 28.6607 16.741 27.1921 17.3751 26.1221C17.4845 26.0082 17.5494 25.8426 17.5555 25.6665C17.5608 25.4903 17.5062 25.3195 17.4046 25.1951C17.1643 24.8953 16.8321 24.7342 16.4904 24.7508C16.1485 24.7674 15.8284 24.961 15.6082 25.2843C15.2221 24.7393 14.5784 24.6027 14.0667 24.9576C13.8584 25.0951 13.7006 25.3247 13.6225 25.5991C13.5999 25.7638 13.6556 25.9303 13.7649 26.0284C14.0866 26.3771 14.2636 26.8863 14.2462 27.4138L14.3295 31.5752C14.3382 31.9643 14.2115 32.3392 13.9817 32.6074C13.7518 32.8746 13.4403 33.0096 13.1255 32.9772C12.8401 32.9553 12.5842 32.7519 12.4515 32.441C12.3831 32.2315 12.3596 32.0037 12.3831 31.7792C12.4888 30.7769 12.7074 29.7981 13.0327 28.8711C13.1082 28.6572 13.1758 28.4407 13.2383 28.2209C13.2851 28.0534 13.3259 27.8826 13.3589 27.71C13.4907 27.0248 13.3962 26.3035 13.0951 25.7041C12.9971 25.5088 12.8696 25.3379 12.7187 25.2011C12.5556 25.053 12.3725 24.9418 12.1783 24.8725C11.8921 24.7551 11.5936 24.6903 11.2918 24.6807C10.8346 24.6894 10.4018 24.9356 10.0999 25.3588C9.79795 25.7822 9.65576 26.3421 9.70781 26.9021C9.72954 27.0886 9.811 27.2578 9.93422 27.369C10.0573 27.4812 10.2126 27.5277 10.3636 27.4979C10.5146 27.468 10.6507 27.3647 10.7392 27.2104C10.8277 27.0562 10.8632 26.8652 10.8363 26.6795L10.7522 26.2527C10.7496 26.2377 10.7479 26.2237 10.7453 26.209C10.7176 26.102 10.7044 25.9898 10.707 25.8776C10.715 25.8321 10.7384 25.7935 10.7713 25.7726C10.8138 25.7498 10.8598 25.7374 10.9066 25.7374C11.0402 25.7269 11.1669 25.8093 11.2354 25.9512C11.2866 26.1072 11.303 26.2772 11.2822 26.4437C11.2371 26.8836 11.1313 27.3103 10.9698 27.7064C10.9075 27.8598 10.8468 28.013 10.7869 28.1682C10.7245 28.332 10.6594 28.4942 10.5935 28.6554C10.1962 29.6 9.98182 30.6446 9.96808 31.7084C9.96463 32.9167 10.5657 34.0041 11.48 34.4423C12.8184 35.0715 14.3174 34.9094 15.5465 34.0033L15.5448 34.0059Z" fill="white"/>
<path fill-rule="evenodd" clip-rule="evenodd" d="M30.1457 34.6982C30.401 34.5799 30.6649 34.4887 30.9338 34.4255C31.1212 34.4255 31.305 34.4923 31.4653 34.6159C31.5676 34.6841 31.6762 34.7367 31.7884 34.7717C32.2497 34.8892 32.7061 34.5431 32.8269 33.9822C32.9749 33.283 33.0279 32.5592 32.986 31.8389C32.9687 31.5436 32.838 31.2773 32.6333 31.1221C32.4285 30.967 32.1757 30.9433 31.955 31.0573C31.8735 31.0985 31.7996 31.1616 31.7403 31.2421C31.6158 31.4104 31.5072 31.5935 31.416 31.7898C31.1989 32.2402 30.9535 32.6678 30.6821 33.0709C30.512 33.3295 30.2419 33.4539 29.9755 33.3978C29.7091 33.3417 29.4895 33.1112 29.3995 32.7975C29.1983 32.1079 29.2019 31.3526 29.4105 30.6655L30.5712 30.5419C30.8326 30.5095 31.0324 30.2398 31.0361 29.9155C31.0373 29.5912 30.84 29.317 30.5785 29.2801L29.7411 29.1952C29.5474 29.1619 29.3847 28.9971 29.323 28.7684C29.1636 28.1734 29.1768 27.5286 29.3576 26.9441C29.4217 26.6513 29.5598 26.392 29.7522 26.2044C29.9717 26.0363 30.2086 25.9039 30.4565 25.811C30.6143 25.7383 30.7845 25.7138 30.951 25.7392C31.0447 25.7698 31.1212 25.8513 31.1582 25.9599C31.2186 26.236 31.231 26.5244 31.194 26.8064C31.1915 26.8801 31.1964 26.9545 31.2051 27.0273C31.2568 27.376 31.4406 27.6731 31.7008 27.8239C31.9611 27.9754 32.2645 27.9632 32.5149 27.7906C32.9034 27.539 33.1401 27.0361 33.1241 26.4972C33.1094 25.9582 32.8442 25.4772 32.4433 25.2599C30.9917 24.4572 29.3144 24.5553 27.9311 25.5237C27.6188 25.1373 27.1703 24.9689 26.7357 25.0741C26.3011 25.1792 25.9385 25.5455 25.7686 26.0485C26.2951 26.4464 26.6082 27.1614 26.5874 27.9221L26.563 28.8649C26.5579 28.97 26.5327 29.0734 26.4902 29.1645C26.3887 29.3476 26.276 29.5212 26.151 29.6815C26.1015 29.7586 26.0817 29.8585 26.0972 29.9549C26.1632 30.1574 26.2542 30.3458 26.3671 30.514C26.5249 30.8321 26.6022 31.2009 26.5874 31.5733C26.5839 31.6601 26.5821 31.7478 26.5821 31.8345C26.5821 32.0054 26.5839 32.1763 26.5882 32.3462C26.6013 32.9202 26.2595 33.4136 25.7972 33.4907C25.8518 34.0681 26.1823 34.5492 26.635 34.7121C27.0887 34.8751 27.5771 34.6876 27.8756 34.2373C28.5486 34.7665 29.3699 34.9321 30.1444 34.6963L30.1457 34.6982Z" fill="white"/>
<path fill-rule="evenodd" clip-rule="evenodd" d="M39.5593 34.0093C39.9466 34.4974 40.5385 34.6428 41.0492 34.3764C41.2798 34.2756 41.4673 34.0663 41.5709 33.7946C41.6178 33.4905 41.508 33.182 41.2934 33.02C41.1059 32.8307 40.9875 32.5573 40.9666 32.2603C40.9567 32.1174 40.9554 31.9746 40.964 31.8318C40.9715 31.7142 40.9715 31.596 40.9666 31.4778C40.9332 30.8021 41.1405 30.1413 41.5351 29.6699C40.9394 28.8848 40.7742 27.7404 41.1145 26.7502C41.1614 26.6136 41.2268 26.4882 41.3069 26.3778C41.434 26.2061 41.5203 25.9959 41.561 25.7697C41.5894 25.5603 41.5339 25.3456 41.4106 25.1967C41.1712 24.8943 40.8395 24.7321 40.4966 24.7496C40.1537 24.7681 39.8356 24.9644 39.6185 25.2912C39.2275 24.7296 38.564 24.5972 38.0497 24.9784C37.8512 25.1178 37.7019 25.342 37.6304 25.6094C37.6106 25.7688 37.6661 25.9283 37.7709 26.0213C38.0978 26.37 38.2754 26.8843 38.2545 27.4154L38.3457 31.5486C38.3544 31.9281 38.2372 32.2953 38.0226 32.567C37.8067 32.8386 37.5107 32.991 37.2024 32.9893C36.7411 32.9253 36.397 32.4364 36.4119 31.8651C36.4291 31.3402 36.4994 30.8197 36.6203 30.3167C36.6598 30.1545 36.7041 29.9951 36.7535 29.8382C36.8238 29.6104 36.9002 29.3861 36.9816 29.1635C37.2295 28.5125 37.3763 27.8106 37.4145 27.0937C37.4774 25.8985 36.7584 24.8574 35.789 24.7436C35.599 24.7217 35.4067 24.7146 35.2155 24.7234C35.0922 24.7287 34.9701 24.7496 34.8505 24.7866C34.4631 24.904 34.1289 25.2055 33.923 25.6252C33.7158 26.0449 33.6541 26.5487 33.7491 27.0253C33.8082 27.3189 34.0142 27.5327 34.2597 27.5555C34.5051 27.5784 34.7332 27.4049 34.827 27.1244C34.8443 27.0701 34.8517 27.0131 34.8505 26.9553C34.8443 26.8712 34.8357 26.7871 34.8221 26.7037C34.8085 26.6154 34.8085 26.5242 34.8221 26.4357C34.8282 26.3971 34.8233 26.3568 34.8085 26.3226C34.79 26.2841 34.7678 26.249 34.7419 26.2184C34.7123 26.1851 34.6889 26.1465 34.6691 26.1045C34.6494 26.0563 34.6519 26.0002 34.674 25.9546C34.732 25.8012 34.8677 25.718 35.0021 25.7548C35.202 25.8932 35.3167 26.1649 35.2932 26.4461C35.25 26.8518 35.155 27.2462 35.012 27.6151C34.917 27.8605 34.8221 28.1049 34.7259 28.3494C34.6975 28.423 34.6679 28.4958 34.6383 28.5694C34.2215 29.5771 34.0006 30.6908 33.9933 31.822C33.9945 32.9674 34.5619 33.9952 35.4264 34.4176C36.7831 35.0722 38.3062 34.9214 39.5605 34.0101L39.5593 34.0093Z" fill="white"/>
<path fill-rule="evenodd" clip-rule="evenodd" d="M2.50025 34.3725C2.85853 34.5101 3.24629 34.4593 3.57324 34.2341C3.7485 34.1194 3.88293 33.9292 3.95236 33.6996C3.98012 33.5839 3.97235 33.4595 3.9298 33.3508C3.85346 33.1957 3.75898 33.0537 3.65045 32.9311C3.37208 32.5692 3.25837 32.0618 3.34693 31.5755C3.36246 31.487 3.37899 31.3994 3.39552 31.3117C3.43449 31.1032 3.4805 30.8964 3.53427 30.6931C3.5577 30.609 3.58545 30.5266 3.61751 30.4468C3.6375 30.3943 3.66784 30.3487 3.70607 30.3128C3.72765 30.2979 3.75466 30.3005 3.77453 30.319C3.79623 30.3416 3.81361 30.3689 3.8257 30.4004L4.29585 31.4931L4.67584 30.6037C4.70877 30.5151 4.76168 30.4407 4.82853 30.389C4.87527 30.3653 4.9283 30.3776 4.96555 30.4197C5.09049 30.5757 5.17028 30.7772 5.19371 30.9946C5.31421 31.6359 5.27437 32.3081 5.07827 32.9214C4.88058 32.9591 4.7174 33.1318 4.65758 33.3666C4.59777 33.6014 4.6524 33.8582 4.79719 34.0274C5.04189 34.3138 5.36885 34.4681 5.70629 34.4557C6.04373 34.4435 6.36303 34.2656 6.59292 33.9617C6.89559 34.3401 7.32848 34.5154 7.75432 34.4321C8.18019 34.3489 8.5481 34.0176 8.74065 33.5419C8.2714 33.0468 7.98511 32.3388 7.94603 31.5799C7.90703 30.8211 8.11785 30.0744 8.53244 29.5092C8.14987 29.1105 7.94257 28.5138 7.97374 27.8978C7.97735 27.755 7.97205 27.6121 7.95823 27.4701C7.93651 27.2826 7.93305 27.0925 7.94787 26.9041C7.97029 26.7306 8.04491 26.5746 8.15777 26.4677C8.35547 26.2986 8.47693 26.0252 8.48645 25.729C8.49605 25.4328 8.3911 25.148 8.20453 24.9614C7.69367 24.582 7.03964 24.6774 6.61538 25.1936C6.12796 24.6145 5.36453 24.5767 4.84147 25.1077C4.69668 25.2751 4.6307 25.5231 4.66806 25.764C4.70531 26.005 4.83975 26.2057 5.0245 26.2969C4.6212 26.7288 4.3939 27.3589 4.40512 28.016C4.40512 28.0617 4.38354 28.1029 4.34876 28.1212C4.28032 28.1432 4.21001 28.0949 4.18917 28.0117C4.17794 27.6901 4.14058 27.3703 4.07731 27.0583C4.05473 26.9812 4.0218 26.9094 3.97926 26.8462C3.93325 26.7858 3.88552 26.728 3.83447 26.6736C3.79019 26.6255 3.74849 26.5756 3.70865 26.522C3.67647 26.4808 3.65229 26.4309 3.63749 26.3766C3.63059 26.3381 3.63836 26.2986 3.6592 26.2688C3.81103 26.0865 3.91943 25.8569 3.97321 25.6055C3.97925 25.5274 3.96273 25.4495 3.92807 25.3846C3.71298 25.0027 3.36863 24.7625 2.99295 24.7319C2.61655 24.7012 2.24963 24.8825 1.99544 25.2261C1.59029 24.7126 0.960545 24.5846 0.443536 24.9115C0.21278 25.0289 0.0462828 25.2822 0.000279589 25.5844C-0.00317374 25.7071 0.0254408 25.8281 0.0818042 25.9288C0.185034 26.0857 0.297879 26.2329 0.418375 26.3686C0.566745 26.5782 0.64396 26.8498 0.637053 27.1275C0.631873 27.3011 0.629152 27.4754 0.626561 27.649C0.625698 27.733 0.626564 27.8172 0.627427 27.9012C0.641364 28.5376 0.416653 29.1455 0.0185341 29.5514C0.825259 30.5125 0.88939 32.0802 0.164316 33.1361C-0.0283297 33.3631 -0.0474512 33.7329 0.120035 33.9879C0.363741 34.3392 0.722027 34.5399 1.09757 34.5364C1.19649 34.5242 1.29195 34.4856 1.37778 34.4252C1.72041 34.1719 2.14468 34.1526 2.50025 34.3752V34.3725Z" fill="white"/>
<path fill-rule="evenodd" clip-rule="evenodd" d="M44.9601 34.3581C45.2906 34.5009 45.6532 34.4754 45.9677 34.2888C46.2822 34.1022 46.5251 33.7683 46.6399 33.3609C46.0281 33.0682 45.6803 32.2682 45.8259 31.4796C45.8666 31.25 45.9184 31.0238 45.9788 30.8004C46.0084 30.6943 46.0429 30.591 46.0836 30.4903C46.0997 30.4525 46.1182 30.4166 46.1391 30.3833C46.1552 30.3588 46.1737 30.3386 46.1959 30.3228C46.2181 30.3098 46.2452 30.3132 46.265 30.3316C46.2847 30.3527 46.302 30.3789 46.3143 30.4087L46.7792 31.4943L47.3712 30.1125C47.8128 30.9581 47.867 32.0255 47.5143 32.9324C47.3281 32.9875 47.18 33.1654 47.132 33.3941C47.0838 33.6229 47.1418 33.8665 47.2825 34.0268C47.7967 34.6103 48.5923 34.5867 49.0831 33.9743C49.3853 34.3396 49.8108 34.5096 50.2301 34.4317C50.6507 34.3537 51.0157 34.0382 51.218 33.5782C50.7481 33.0787 50.4632 32.3663 50.4286 31.6031C50.3929 30.8407 50.61 30.0932 51.0293 29.5306C50.6445 29.1233 50.4311 28.523 50.4496 27.8982C50.4496 27.879 50.4496 27.8596 50.4496 27.8404C50.4459 27.602 50.4422 27.3637 50.4373 27.1253C50.4336 26.866 50.499 26.6127 50.626 26.405C50.6815 26.3227 50.742 26.2464 50.8085 26.1772C50.8936 26.0913 50.9639 25.987 51.017 25.8688C51.1033 25.5455 50.9985 25.1923 50.7642 25.0118C50.2412 24.5771 49.5419 24.6533 49.0893 25.1958C48.6071 24.6166 47.8498 24.5754 47.3281 25.1003C47.18 25.2642 47.1123 25.5111 47.148 25.7522C47.185 25.9932 47.3207 26.1929 47.5069 26.2797C47.1098 26.723 46.8804 27.3523 46.8779 28.0129C46.8779 28.0384 46.8729 28.0638 46.8643 28.0866C46.8532 28.1075 46.8347 28.1216 46.815 28.1225C46.7842 28.1191 46.7546 28.1041 46.7311 28.0787C46.7027 28.0497 46.6769 28.0147 46.6584 27.9753C46.6276 27.9095 46.6103 27.8361 46.6066 27.7597L46.6423 27.2121C46.6276 27.0482 46.5375 26.9088 46.4104 26.8528C46.265 26.7977 46.1638 26.6329 46.1613 26.4445C46.1922 26.2999 46.244 26.1623 46.313 26.0397C46.3784 25.9187 46.429 25.7847 46.4574 25.6436C46.4696 25.5524 46.4524 25.4586 46.4104 25.3825C46.1946 25.0021 45.8493 24.761 45.4732 24.7278C45.097 24.6936 44.7282 24.8707 44.4692 25.209C44.0634 24.7085 43.4406 24.5858 42.9275 24.9048C42.6957 25.0231 42.5279 25.2781 42.4835 25.5813C42.4786 25.704 42.507 25.8258 42.5637 25.9275C42.6686 26.086 42.7807 26.235 42.9017 26.3735C43.0459 26.5839 43.1212 26.8502 43.1162 27.1244C43.1126 27.3584 43.1089 27.5924 43.1051 27.8272C43.1051 27.8508 43.1051 27.8745 43.1051 27.8982C43.1212 28.5177 42.9078 29.1135 42.5242 29.5158C42.9399 30.052 43.1631 30.7715 43.1433 31.5118C43.1236 32.2532 42.8634 32.9525 42.4194 33.4546C42.502 33.9147 42.787 34.2801 43.1569 34.4001C43.3296 34.4693 43.5097 34.5 43.691 34.4895C43.7526 34.4789 43.8131 34.4544 43.8673 34.4168C44.2003 34.1767 44.6086 34.1539 44.9576 34.3572L44.9601 34.3581Z" fill="white"/>
</g>
</g>
<defs>
<clipPath id="clip0_9066_1818">
<rect width="51.286" height="40" fill="white"/>
</clipPath>
<clipPath id="clip1_9066_1818">
<rect width="51.286" height="40" fill="white"/>
</clipPath>
</defs>
</svg>
